<?xml version="1.0" standalone="no"?>
<!DOCTYPE svg PUBLIC "-//W3C//DTD SVG 20010904//EN"
 "http://www.w3.org/TR/2001/REC-SVG-20010904/DTD/svg10.dtd">
<svg version="1.0" xmlns="http://www.w3.org/2000/svg"
 width="512.000000pt" height="512.000000pt" viewBox="0 0 512.000000 512.000000"
 preserveAspectRatio="xMidYMid meet">
<metadata>
Created by potrace 1.16, written by Peter Selinger 2001-2019
</metadata>
<g transform="translate(0.000000,512.000000) scale(0.100000,-0.100000)"
fill="#000000" stroke="none">
<path d="M22 5097 l-22 -23 0 -651 c0 -358 3 -659 6 -668 14 -36 57 -45 214
-45 l152 0 29 29 29 29 0 461 0 461 30 0 c70 0 105 86 55 135 -22 22 -32 25
-105 25 -77 0 -83 -2 -111 -29 l-29 -29 0 -461 0 -461 -60 0 -60 0 0 550 0
550 550 0 550 0 0 -60 0 -60 -235 0 -236 0 -24 -25 c-33 -32 -33 -78 0 -110
l24 -25 286 0 287 0 29 29 29 29 0 152 c0 157 -9 200 -45 214 -9 3 -310 6
-669 6 l-653 0 -21 -23z"/>
<path d="M3752 5113 c-33 -13 -42 -60 -42 -213 l0 -152 29 -29 29 -29 461 0
461 0 0 -461 0 -461 29 -29 29 -29 152 0 c157 0 200 9 214 45 3 9 6 310 6 669
l0 653 -23 21 -23 22 -655 -1 c-360 0 -660 -3 -667 -6z m1218 -693 l0 -550
-60 0 -60 0 0 461 0 461 -29 29 -29 29 -461 0 -461 0 0 60 0 60 550 0 550 0 0
-550z"/>
<path d="M2396 4979 c-591 -52 -1124 -419 -1391 -957 -127 -256 -185 -523
-185 -859 l0 -113 -318 0 -319 0 -24 -26 -24 -26 0 -438 0 -438 24 -26 c23
-24 31 -26 108 -26 96 0 123 16 123 73 0 45 -23 73 -65 81 l-35 7 0 329 0 330
265 0 265 0 0 -329 0 -329 -96 -4 c-91 -3 -97 -5 -120 -31 -29 -34 -31 -66 -3
-101 20 -25 24 -26 120 -26 l99 0 0 -112 c0 -164 17 -337 46 -467 147 -657
658 -1168 1315 -1315 782 -174 1574 203 1933 921 128 255 186 523 186 861 l0
112 318 0 319 0 24 26 24 26 0 438 0 438 -24 26 -24 26 -317 0 -317 0 -6 188
c-7 208 -16 278 -53 432 -28 119 -49 150 -101 150 -37 0 -83 -37 -83 -66 0
-10 9 -50 20 -88 35 -127 51 -248 57 -433 l6 -183 -60 0 -60 0 -6 198 c-8 276
-42 429 -142 638 -71 147 -158 267 -285 394 -211 212 -440 336 -737 402 -82
18 -130 21 -293 21 -163 0 -211 -3 -293 -21 -298 -66 -526 -190 -737 -402
-262 -262 -407 -583 -427 -946 -6 -111 -6 -112 20 -138 33 -33 79 -35 111 -3
20 20 24 36 29 127 11 187 55 346 143 520 190 372 551 633 968 697 119 18 331
12 441 -12 516 -112 904 -500 1020 -1020 10 -42 18 -146 22 -262 l6 -193 -62
0 -61 0 0 164 c0 185 -14 287 -59 419 -140 413 -513 725 -940 787 -118 18
-364 8 -461 -18 -160 -43 -374 -146 -422 -203 -26 -30 -23 -75 7 -104 33 -34
76 -32 131 6 72 49 192 106 289 135 85 26 101 28 275 28 173 0 191 -2 275 -27
294 -91 536 -297 655 -561 67 -148 83 -224 88 -433 l4 -193 -55 0 -54 0 -6
173 c-6 198 -24 283 -87 415 -49 102 -85 155 -163 238 -229 245 -599 343 -921
244 -88 -28 -116 -52 -116 -100 0 -30 6 -43 27 -60 32 -25 51 -23 158 10 101
32 279 33 388 2 262 -75 458 -273 532 -537 11 -39 19 -117 22 -222 l6 -163
-62 0 -61 0 0 143 c0 92 -6 165 -16 207 -52 223 -241 412 -464 464 -83 20
-217 20 -299 1 -202 -48 -386 -220 -453 -425 -17 -52 -22 -97 -26 -227 l-4
-163 -60 0 -61 0 6 158 c4 118 10 175 26 230 38 130 103 241 207 354 49 53 55
82 23 122 -16 21 -29 26 -62 26 -38 0 -47 -5 -98 -60 -111 -116 -187 -254
-230 -418 -15 -56 -22 -122 -26 -244 l-6 -168 -55 0 -54 0 4 188 c5 165 8 198
32 277 31 105 80 213 133 292 44 66 48 116 13 145 -26 21 -79 24 -102 6 -44
-36 -140 -216 -182 -343 -41 -123 -56 -230 -56 -406 l0 -159 -200 0 -200 0 0
118 c1 310 49 531 169 777 79 161 163 277 301 415 138 138 254 222 415 301
268 131 548 186 816 160 227 -21 380 -65 584 -166 272 -135 447 -298 669 -627
23 -34 30 -38 70 -38 52 0 76 24 76 75 0 86 -247 393 -440 547 -134 106 -338
219 -501 276 -119 42 -293 79 -429 91 -129 12 -172 12 -314 0z m285 -1275 c87
-26 149 -62 210 -123 105 -105 139 -203 139 -398 l0 -133 -54 0 -53 0 -5 138
c-7 175 -26 231 -107 313 -73 73 -145 102 -251 101 -107 0 -179 -29 -251 -101
-81 -81 -100 -138 -107 -313 l-5 -138 -53 0 -54 0 0 128 c0 184 25 266 117
379 106 130 313 195 474 147z m-73 -266 c31 -8 59 -25 87 -53 52 -51 65 -99
65 -234 l0 -101 -60 0 -60 0 0 115 c0 110 -1 117 -25 140 -15 16 -36 25 -55
25 -19 0 -40 -9 -55 -25 -24 -23 -25 -30 -25 -140 l0 -115 -60 0 -60 0 0 101
c0 55 5 121 12 147 19 75 96 140 181 151 5 1 29 -4 55 -11z m-960 -600 l-3
-53 -253 -5 c-252 -5 -254 -5 -273 -29 -25 -30 -24 -72 2 -105 l20 -26 265 0
c224 0 270 2 297 16 76 39 107 93 107 189 l0 65 60 0 60 0 0 -122 c0 -143 -15
-188 -75 -234 -36 -27 -44 -29 -171 -34 -146 -6 -159 -10 -170 -67 -5 -27 -1
-37 25 -64 l32 -31 137 4 c125 3 142 6 193 31 66 32 132 99 162 165 18 40 22
71 25 200 l4 152 53 0 52 0 6 -47 c6 -56 33 -83 83 -83 49 0 74 29 74 85 l0
45 60 0 60 0 0 -187 c0 -217 -12 -288 -65 -399 l-36 -74 -75 0 -76 0 27 31
c63 75 105 193 105 295 0 72 -20 98 -76 98 -51 0 -74 -28 -84 -105 -11 -94
-43 -160 -106 -219 -104 -98 -79 -95 -631 -98 l-483 -3 0 331 0 330 336 0 335
0 -3 -52z m1112 -110 c0 -195 -13 -316 -46 -420 l-25 -78 -64 0 -64 0 19 45
c45 106 52 153 57 388 l5 227 59 0 59 0 0 -162z m272 46 c3 -108 5 -117 27
-135 31 -25 79 -24 108 3 21 20 23 29 23 135 l0 113 60 0 60 0 0 -330 0 -330
-63 0 -63 0 4 110 c4 105 3 112 -18 135 -32 34 -82 34 -115 0 -22 -21 -25 -33
-25 -97 0 -40 -3 -90 -6 -110 l-7 -38 -79 0 c-68 0 -79 2 -74 15 36 96 56 261
56 483 l0 162 54 0 54 0 4 -116z m548 22 c0 -101 12 -151 40 -166 31 -16 79
-11 100 10 18 18 20 33 20 135 l0 115 60 0 60 0 0 -330 0 -330 -60 0 -60 0 0
115 c0 102 -2 117 -20 135 -21 21 -69 26 -100 10 -28 -15 -40 -65 -40 -166 l0
-94 -55 0 -55 0 0 330 0 330 55 0 55 0 0 -94z m560 -236 l0 -330 -60 0 -60 0
0 330 0 330 60 0 60 0 0 -330z m690 0 l0 -330 -265 0 -265 0 0 330 0 330 265
0 265 0 0 -330z m-2635 -506 c-36 -29 -147 -76 -214 -90 -50 -10 -160 -14
-449 -14 l-383 0 -24 -25 c-33 -32 -33 -78 0 -111 l25 -25 423 3 c401 4 426 5
495 26 41 13 101 36 135 53 75 38 200 131 228 170 19 28 24 29 96 29 l75 0
-31 -39 c-55 -69 -33 -151 40 -151 47 0 62 13 125 105 l58 85 88 0 c63 0 88
-3 88 -12 0 -32 -97 -203 -158 -278 -152 -190 -351 -312 -587 -361 -80 -17
-140 -19 -520 -19 -468 0 -464 0 -485 -56 -11 -29 5 -81 30 -94 12 -6 189 -10
453 -10 344 0 453 3 523 15 299 52 562 214 742 458 60 80 133 219 158 300 l18
57 76 0 77 0 -9 -52 c-27 -148 -106 -327 -197 -449 -99 -131 -253 -259 -398
-333 -29 -14 -57 -35 -63 -45 -28 -53 7 -121 62 -121 69 0 255 118 386 244
209 202 329 430 377 719 l6 37 61 0 61 0 -6 -107 c-24 -476 -362 -908 -826
-1058 -157 -51 -208 -56 -649 -62 l-413 -6 -19 -25 c-26 -32 -25 -63 1 -96
l22 -27 456 4 456 3 104 27 c57 15 146 45 197 67 477 199 806 657 831 1158 l6
122 60 0 60 0 -6 -192 c-9 -311 -61 -486 -217 -728 -51 -78 -60 -100 -56 -125
13 -66 91 -87 138 -37 70 74 173 266 223 415 51 154 66 249 72 465 l6 202 60
0 60 0 -6 -182 c-3 -101 -13 -223 -22 -273 -89 -513 -414 -944 -880 -1166
-446 -213 -940 -207 -1382 16 -317 161 -562 411 -714 730 -111 231 -158 457
-159 758 l0 117 618 0 c565 -1 615 -2 597 -16z"/>
<path d="M1121 2474 c-26 -33 -27 -75 -2 -105 17 -22 29 -24 111 -28 55 -2
102 2 120 9 34 14 54 56 44 94 -11 46 -38 56 -150 56 -99 0 -103 -1 -123 -26z"/>
<path d="M2317 1805 c-115 -70 -232 -108 -372 -125 -50 -5 -244 -10 -432 -10
-330 0 -344 -1 -363 -20 -26 -26 -26 -80 -1 -111 l19 -24 319 -3 c372 -4 532
7 658 43 104 30 231 89 293 134 37 27 42 36 42 69 0 47 -32 82 -76 82 -16 0
-55 -16 -87 -35z"/>
<path d="M2330 1130 c-30 -5 -247 -8 -482 -9 -414 -1 -429 -2 -448 -21 -31
-31 -27 -93 6 -119 26 -20 37 -21 443 -21 456 0 582 9 619 43 32 30 31 89 -4
116 -28 22 -43 23 -134 11z"/>
<path d="M3364 840 c-11 -4 -56 -31 -99 -60 -194 -126 -401 -194 -635 -207
-91 -5 -107 -9 -127 -29 -32 -32 -30 -78 3 -111 26 -26 27 -26 139 -20 256 14
489 89 708 229 81 53 117 89 117 119 0 31 -21 66 -47 78 -28 13 -31 13 -59 1z"/>
<path d="M45 1398 c-46 -25 -45 -6 -45 -698 l0 -657 23 -21 23 -22 651 0 c358
0 659 3 668 6 36 14 45 57 45 214 l0 152 -29 29 -29 29 -461 0 -461 0 0 461 0
461 -29 29 -29 29 -154 0 c-91 0 -161 -5 -173 -12z m225 -609 l0 -461 29 -29
29 -29 461 0 461 0 0 -60 0 -60 -550 0 -550 0 0 550 0 550 60 0 60 0 0 -461z"/>
<path d="M4719 1381 l-29 -29 0 -461 0 -461 -461 0 -461 0 -29 -29 -29 -29 0
-152 c0 -157 9 -200 45 -214 9 -3 310 -6 669 -6 l653 0 21 23 22 23 0 651 c0
358 -3 659 -6 668 -14 36 -57 45 -214 45 l-152 0 -29 -29z m251 -681 l0 -550
-550 0 -550 0 0 60 0 60 461 0 461 0 29 29 29 29 0 461 0 461 60 0 60 0 0
-550z"/>
</g>
</svg>
